<?xml version="1.0" standalone="no"?><!DOCTYPE svg PUBLIC "-//W3C//DTD SVG 1.1//EN" "http://www.w3.org/Graphics/SVG/1.1/DTD/svg11.dtd"><svg t="1480671334703" class="icon" style="" viewBox="0 0 1024 1024" version="1.1" xmlns="http://www.w3.org/2000/svg" p-id="681" xmlns:xlink="http://www.w3.org/1999/xlink" width="200" height="200"><defs><style type="text/css"></style></defs><path d="M932.222976 904.000512H903.999488V568.1664c0-31.639552-25.314304-56.1664-56.503296-56.1664H736.560128c-31.75424 0-56.559616 25.143296-56.559616 56.1664v335.834112h-56.000512v-783.60576c0-31.251456-25.314304-56.393728-56.503296-56.393728H456.503296c-31.694848 0-56.503296 25.25696-56.503296 56.393728v783.60576H344.000512V343.77728c0-30.857216-25.311232-55.77728-56.503296-55.77728h-110.994432c-31.694848 0-56.503296 24.977408-56.503296 55.77728v560.223232h-28.223488c-15.120384 0-27.777024 12.542976-27.777024 28.000256 0 15.005696 12.43136 28.000256 27.777024 28.000256h840.388608c15.176704 0 27.834368-12.542976 27.834368-28.000256 0.001024-15.00672-12.432384-28.000256-27.776-28.000256z" fill="" p-id="682"></path></svg>