<?xml version="1.0" standalone="no"?><!DOCTYPE svg PUBLIC "-//W3C//DTD SVG 1.1//EN" "http://www.w3.org/Graphics/SVG/1.1/DTD/svg11.dtd"><svg t="1480671363599" class="icon" style="" viewBox="0 0 1024 1024" version="1.1" xmlns="http://www.w3.org/2000/svg" p-id="899" xmlns:xlink="http://www.w3.org/1999/xlink" width="200" height="200"><defs><style type="text/css"></style></defs><path d="M605.640704 63.708997 409.55477 63.708997c-24.052812 0-43.281759 21.401426-43.281759 47.850821 0 26.508747 19.262716 47.973618 43.281759 47.973618l197.301622 0c22.838148 0 42.09677-21.464871 42.09677-47.973618C648.956232 85.105307 629.724215 63.708997 605.640704 63.708997L605.640704 63.708997 605.640704 63.708997 605.640704 63.708997zM818.559001 95.64536l-97.646947 0c0.992607 5.239328 1.565658 10.54517 1.565658 15.914458 0.028653 40.273239-29.185716 79.916121-63.942311 79.916121L358.549096 191.475939c-36.580127 0-65.835428-39.642882-65.835428-79.916121 0.035816-5.369288 0.607844-10.674107 1.600451-15.914458L195.486276 95.64536c-79.43619 0-98.956779 45.034682-98.956779 110.005416l0 643.556245c0 69.790506 27.946492 108.853174 104.957447 108.853174l611.06525 0c77.013001 0 114.446565-30.626531 114.446565-108.819404L926.998759 205.650777c0.005117-64.965617-35.044144-110.0003-108.439758-110.0003l0 0L818.559001 95.64536 818.559001 95.64536zM718.235085 731.056088 293.607014 731.056088c-15.652492 0-31.274284-19.198248-31.274284-34.875299 0-15.621792 13.222139-29.007661 28.874631-29.007661l423.416476 0c15.647375 0 28.869514 12.165064 30.05962 29.007661C744.682433 711.861934 733.880413 731.056088 718.235085 731.056088L718.235085 731.056088 718.235085 731.056088 718.235085 731.056088zM719.963449 560.65514 295.327192 560.65514c-15.652492 0-25.619494-16.82827-25.619494-32.514531 0-15.683191 13.232372-31.364335 28.879748-31.364335l423.416476 0c15.652492 0 28.874631 14.530948 30.055526 31.364335C752.058424 543.821753 735.580125 560.65514 719.963449 560.65514L719.963449 560.65514 719.963449 560.65514 719.963449 560.65514zM719.963449 385.649314 295.327192 385.649314c-15.652492 0-25.619494-16.83748-25.619494-32.518624 0-15.683191 13.232372-31.364335 28.879748-31.364335l423.416476 0c15.652492 0 28.874631 14.536065 30.055526 31.364335C752.058424 368.811834 735.580125 385.649314 719.963449 385.649314L719.963449 385.649314 719.963449 385.649314 719.963449 385.649314zM719.963449 385.649314" p-id="900"></path></svg>