<?xml version="1.0" standalone="no"?><!DOCTYPE svg PUBLIC "-//W3C//DTD SVG 1.1//EN" "http://www.w3.org/Graphics/SVG/1.1/DTD/svg11.dtd"><svg t="1495615004525" class="icon" style="" viewBox="0 0 1024 1024" version="1.1" xmlns="http://www.w3.org/2000/svg" p-id="2370" xmlns:xlink="http://www.w3.org/1999/xlink" width="16" height="16"><defs><style type="text/css"></style></defs><path style="fill:#d4deee" d="M525.982 21.639c-271.948 0-492.093 220.497-492.093 492.093s220.497 492.093 492.093 492.093 492.093-220.147 492.093-492.093-220.497-492.093-492.093-492.093zM587.932 184.736l-23.101 468.994h-78.399l-23.101-468.994h124.599zM577.081 823.479c-14.701 12.949-31.85 19.249-51.45 19.249s-36.398-6.65-49.698-20.299c-14-12.25-21.349-28.701-21.349-49.698 0-20.999 6.998-37.45 21.349-49.698 12.949-12.949 29.399-19.249 49.698-19.249 20.999 0 38.15 6.299 51.45 19.249 13.65 13.65 20.299 30.099 20.299 49.698 0 20.299-6.998 37.1-20.299 50.749z" p-id="2371"></path></svg>